<svg id="Layer_1" data-name="Layer 1" xmlns="http://www.w3.org/2000/svg" viewBox="0 0 131.88 160.04"><path d="M171,105.22h-5V86c0-23-16.94-41-41.17-41S84,63.34,84,86v19.25h-5a20.16,20.16,0,0,0-20,20.14V185c0,11,9,19.85,20.36,20h91.16a20.29,20.29,0,0,0,20.36-20V125.18A20,20,0,0,0,171,105.22Zm-76.28.18V86.15c0-17.11,11.84-31,30.12-31,18.11,0,30.48,13.54,30.48,31v19.07H94.7v.18Zm75.57,88.93H79.73a10,10,0,0,1-10-10V124.11a10,10,0,0,1,10-10h90.54a10,10,0,0,1,10,10v60.24A10,10,0,0,1,170.27,194.33ZM135.69,144.6a9.94,9.94,0,0,1-5.34,8.74h0v16.39a5.36,5.36,0,0,1-10.7,0V153.34h0a9.94,9.94,0,0,1-5.34-8.74c0-5.52,4.77-10,10.69-10A10.12,10.12,0,0,1,135.69,144.6Z" transform="translate(-59.06 -44.98)"/></svg>